<?xml version="1.0" encoding="UTF-8" standalone="no"?>
<!-- Generator: Adobe Illustrator 16.0.0, SVG Export Plug-In . SVG Version: 6.00 Build 0)  -->

<svg
   xmlns:dc="http://purl.org/dc/elements/1.1/"
   xmlns:cc="http://creativecommons.org/ns#"
   xmlns:rdf="http://www.w3.org/1999/02/22-rdf-syntax-ns#"
   xmlns:svg="http://www.w3.org/2000/svg"
   xmlns="http://www.w3.org/2000/svg"
   xmlns:sodipodi="http://sodipodi.sourceforge.net/DTD/sodipodi-0.dtd"
   xmlns:inkscape="http://www.inkscape.org/namespaces/inkscape"
   version="1.1"
   id="Layer_1"
   x="0px"
   y="0px"
   width="1000"
   height="264.15399"
   viewBox="0 0 1000 264.15398"
   enable-background="new 0 0 1000 257.579"
   xml:space="preserve"
   inkscape:version="0.91 r13725"
   sodipodi:docname="AMC_1994.svg"><metadata
   id="metadata15687"><rdf:RDF><cc:Work
       rdf:about=""><dc:format>image/svg+xml</dc:format><dc:type
         rdf:resource="http://purl.org/dc/dcmitype/StillImage" /><dc:title></dc:title></cc:Work></rdf:RDF></metadata><defs
   id="defs15685" /><sodipodi:namedview
   pagecolor="#ffffff"
   bordercolor="#666666"
   borderopacity="1"
   objecttolerance="10"
   gridtolerance="10"
   guidetolerance="10"
   inkscape:pageopacity="0"
   inkscape:pageshadow="2"
   inkscape:window-width="1366"
   inkscape:window-height="705"
   id="namedview15683"
   showgrid="false"
   inkscape:zoom="0.584"
   inkscape:cx="540.04995"
   inkscape:cy="215.66473"
   inkscape:window-x="-8"
   inkscape:window-y="-8"
   inkscape:window-maximized="1"
   inkscape:current-layer="Layer_1" />
<g
   id="g15673"
   transform="matrix(1.0255294,0,0,1.0255294,0,1.8819023e-4)">
	
	<path
   d="m 519.332,37.693 c 46.612,-39.453 95.494,-38.666 137.055,-18.156 38.662,20.389 52.516,49.696 53.116,92.479 l 0,105.008 c 0,0 -0.378,29.619 -30.76,29.619 -28.861,0 -30.213,-29.43 -30.213,-29.43 l -0.412,-103.661 c 0,0 -1.755,-48.183 -49.942,-48.183 -48.186,0 -52.333,47.713 -52.333,47.713 l 0,102.125 c 0,0 0,30.908 -30.651,30.908 -29.937,0 -30.571,-30.908 -30.571,-30.908 l 0,-101.75 c 0,0 -0.905,-48.247 -52.11,-48.247 -51.206,0 -49.632,48.939 -49.632,48.939 l 0,104.731 c 0,0 -3.547,27.545 -30.402,27.545 -27.869,0 -30.666,-27.801 -30.666,-27.801 l -0.283,-105.542 c 0,-38.949 7.545,-77.619 62.83,-99.513 25.127,-9.957 54.719,-9.737 81.229,-3.705 17.575,6.177 33.826,15.62 47.902,27.828 l 2.824,2.452 3.147,-2.452 -0.128,0 z"
   id="path15677"
   inkscape:connector-curvature="0"
   style="fill:#e41d38" />
	<path
   d="m 223.654,216.302 c 0,-30.375 -30.125,-30.47 -30.125,-30.47 l -108.53,0 c -6.282,0 -7.194,-4.931 -5.621,-10.648 13.252,-32.918 42.655,-69.797 74.097,-85.88 26.012,-13.319 55.818,-27.108 86.761,-25.129 6.438,0.503 6.438,3.519 6.471,13.664 l 0,136.991 c 0,0 1.54,31.098 31.665,31.098 31.004,0 28.523,-30.064 28.523,-30.064 l 0,-171.98 C 307.788,33.759 305.045,23.648 299.168,15.36 294.278,10.466 288.064,7.112 281.296,5.717 245.49,2.556 209.415,6.024 174.872,15.957 111.827,34.333 51.578,85.536 20.669,146.474 10.146,167.238 0.378,194.471 0,219.572 c 0.405,12.063 5.431,26.099 19.156,26.099 l 175.001,0.911 c 0,0 29.619,1.102 29.619,-30.279 l -0.122,0 z"
   id="path15679"
   inkscape:connector-curvature="0"
   style="fill:#e41d38" />
	<path
   d="m 947.322,141.763 c 30.625,3.141 26.795,31.914 26.795,31.914 -16.521,52.013 -65.215,83.901 -122.729,83.901 -71.124,0 -128.787,-57.663 -128.787,-128.788 C 722.601,57.659 780.264,0 851.388,0 c 57.737,0 106.613,28.271 122.944,80.54 0,0 7.797,31.413 -26.098,35.435 -25.134,0 -28.964,-20.483 -28.964,-20.483 -9.706,-28.082 -36.379,-38.416 -67.761,-38.416 -39.582,0 -71.679,32.094 -71.679,71.682 0,39.588 32.097,71.685 71.679,71.685 31.003,0 57.393,-13.762 67.409,-41.31 0,0 6.289,-17.809 28.274,-17.309 l 0.13,-0.061 z"
   id="path15681"
   inkscape:connector-curvature="0"
   style="fill:#e41d38" />
</g>
</svg>